<?xml version="1.0" standalone="no"?>
<!DOCTYPE svg PUBLIC "-//W3C//DTD SVG 20010904//EN"
 "http://www.w3.org/TR/2001/REC-SVG-20010904/DTD/svg10.dtd">
<svg version="1.0" xmlns="http://www.w3.org/2000/svg"
 width="222" height="100" viewBox="0 0 866.000000 333.000000"
 preserveAspectRatio="xMidYMid meet">

<g transform="translate(0.000000,333.000000) scale(0.100000,-0.100000)"
fill="#1E69B8" stroke="none">
<path d="M112 3210 c-64 -39 -62 -17 -61 -792 1 -1200 12 -1332 130 -1569 219
-440 635 -718 1149 -770 457 -46 890 99 1185 396 169 171 275 341 329 529 44
150 56 286 56 617 l0 299 -685 0 -685 0 0 -259 c0 -286 -6 -337 -51 -429 -54
-110 -156 -162 -290 -148 -126 13 -200 77 -247 214 -15 42 -17 151 -22 954
l-5 908 -33 32 -32 33 -353 3 c-339 2 -353 2 -385 -18z"/>
<path d="M2073 3220 c-133 -24 -242 -88 -354 -207 -83 -89 -137 -181 -165
-283 -16 -55 -18 -106 -19 -335 l0 -270 683 -3 682 -2 0 250 c0 294 -10 363
-72 490 -76 155 -239 294 -408 345 -65 19 -271 28 -347 15z"/>
<path d="M4257 2214 c-4 -4 -7 -263 -7 -576 l0 -568 109 0 110 0 3 274 c3 259
4 276 24 302 35 47 70 67 126 71 41 3 60 -1 86 -17 58 -36 62 -59 62 -360 l0
-270 116 0 115 0 -3 323 -3 322 -28 56 c-76 157 -298 186 -448 59 l-49 -41 -2
213 -3 213 -101 3 c-55 1 -103 0 -107 -4z"/>
<path d="M3360 1636 l0 -566 115 0 115 0 0 210 0 210 123 0 c197 0 289 30 370
120 75 84 103 203 73 320 -29 111 -87 181 -196 234 l-65 31 -267 3 -268 3 0
-565z m508 349 c52 -31 72 -72 72 -145 0 -129 -57 -169 -237 -170 l-113 0 0
171 0 171 123 -4 c100 -3 128 -7 155 -23z"/>
<path d="M5373 1895 c-134 -36 -227 -126 -235 -227 l-3 -33 87 -3 87 -3 26 40
c36 58 74 74 155 69 102 -8 135 -40 128 -129 l-3 -44 -120 -11 c-66 -6 -143
-17 -170 -23 -76 -18 -165 -71 -200 -120 -26 -37 -30 -51 -30 -109 1 -70 31
-148 71 -183 53 -47 107 -64 199 -64 101 0 143 16 214 80 21 19 41 35 45 35 3
0 6 -22 6 -50 l0 -50 100 0 100 0 0 318 c0 297 -2 320 -21 362 -11 25 -30 56
-42 68 -70 75 -262 112 -394 77z m245 -530 c-5 -74 -26 -105 -93 -136 -45 -21
-131 -25 -168 -8 -65 29 -61 135 6 170 24 13 160 36 221 38 l38 1 -4 -65z"/>
<path d="M6919 1896 c-54 -19 -106 -54 -134 -89 l-25 -32 0 53 0 52 -110 0
-110 0 0 -405 0 -405 109 0 110 0 3 268 c3 246 5 270 23 301 34 58 68 76 142
76 62 0 67 -2 93 -33 15 -19 31 -47 34 -64 3 -17 6 -147 6 -289 l0 -259 110 0
109 0 3 274 c3 259 4 276 24 302 47 64 117 88 188 64 69 -22 70 -30 76 -350
l5 -285 113 -3 113 -3 -3 324 -3 323 -30 60 c-28 53 -37 62 -99 94 -62 32 -77
35 -150 35 -96 -1 -151 -22 -215 -83 l-42 -40 -52 53 c-43 44 -61 55 -105 64
-69 14 -138 13 -183 -3z"/>
<path d="M8170 1896 c-116 -33 -196 -100 -225 -187 -25 -74 -20 -79 80 -79
l85 0 25 41 c31 48 75 69 145 69 102 0 144 -38 138 -125 l-3 -50 -125 -11
c-274 -26 -396 -106 -394 -259 2 -104 62 -188 161 -225 107 -40 227 -19 318
56 l55 44 0 -50 0 -51 103 3 102 3 0 305 c-1 219 -5 318 -14 350 -19 65 -89
129 -166 154 -75 24 -224 30 -285 12z m250 -522 c0 -35 -6 -67 -17 -85 -26
-44 -104 -79 -176 -79 -51 0 -62 4 -88 29 -43 44 -36 113 16 147 25 16 155 41
228 43 l37 1 0 -56z"/>
<path d="M6390 1880 c-30 -4 -73 -16 -96 -28 -40 -20 -104 -83 -104 -102 0 -6
-4 -10 -10 -10 -6 0 -10 30 -10 70 l0 70 -105 0 -105 0 0 -405 0 -405 114 0
115 0 3 248 c3 239 4 248 27 285 30 49 89 78 168 85 l63 5 0 98 c0 55 -1 98
-2 98 -2 -1 -28 -5 -58 -9z"/>
</g>
</svg>
